PathFileType	4	(X/Y/Z)	C:/Users/opensim2020/Desktop/walking_exp_matlab/subject01_walking05_straight_04.trc	
DataRate	CameraRate	NumFrames	NumMarkers	Units	OrigDataRate	OrigDataStartFrame	OrigNumFrames	
100.00	100.00	7	43	mm	100.00	2810	283	
Frame#	Time	LFHD			RFHD			LBHD			RBHD			C7			T10			CLAV			STRN			RBAK			LSHO			LUPA			LELB			LFRM			LWRA			LWRB			LFIN			RSHO			RUPA			RELB			RFRM			RWRA			RWRB			RFIN			LASI			RASI			LPSI			RPSI			LTHI			LKNE			LTIB			LANK			LHEE			LTOE			RTHI			RKNE			RTIB			RANK			RHEE			RTOE			*39			*40			*41			*42			
		X1	Y1	Z1	X2	Y2	Z2	X3	Y3	Z3	X4	Y4	Z4	X5	Y5	Z5	X6	Y6	Z6	X7	Y7	Z7	X8	Y8	Z8	X9	Y9	Z9	X10	Y10	Z10	X11	Y11	Z11	X12	Y12	Z12	X13	Y13	Z13	X14	Y14	Z14	X15	Y15	Z15	X16	Y16	Z16	X17	Y17	Z17	X18	Y18	Z18	X19	Y19	Z19	X20	Y20	Z20	X21	Y21	Z21	X22	Y22	Z22	X23	Y23	Z23	X24	Y24	Z24	X25	Y25	Z25	X26	Y26	Z26	X27	Y27	Z27	X28	Y28	Z28	X29	Y29	Z29	X30	Y30	Z30	X31	Y31	Z31	X32	Y32	Z32	X33	Y33	Z33	X34	Y34	Z34	X35	Y35	Z35	X36	Y36	Z36	X37	Y37	Z37	X38	Y38	Z38	X39	Y39	Z39	X40	Y40	Z40	X41	Y41	Z41	X42	Y42	Z42	X43	Y43	Z43	

36	0.350	1475.58093	1157.10779	1680.66650	1363.82251	1135.09094	1683.70215	1459.34741	1270.34314	1629.93054	1341.08093	1251.35986	1631.84436	1422.78845	1294.97534	1435.39661	1422.09924	1325.74023	1143.43262	1435.48486	1149.71277	1372.00464	1450.59558	1103.01099	1219.37451	1348.94043	1340.33435	1237.42676	1588.63562	1228.11243	1406.05872	1682.16614	1266.53967	1230.90918	1701.27734	1273.18347	1078.10730	1739.21533	1196.54236	993.52136	1738.45007	1074.22205	926.63397	1756.81079	1123.42700	897.23865	1780.98450	1051.86389	861.65588	1279.74341	1205.71362	1392.60486	1182.50244	1264.71582	1190.26831	1184.14990	1270.20679	1067.47290	1153.98792	1259.64832	949.03870	1174.60168	1200.09705	819.90088	1132.96143	1242.26953	829.20776	1139.89160	1221.79333	744.07880	1545.31958	1168.23254	932.85724	1333.08765	1139.67004	942.09314	1470.12280	1346.04761	952.58759	1325.95117	1325.55518	958.81982	1613.83264	1225.01733	600.72156	1611.38989	1253.70691	469.04453	1605.82373	1406.14197	360.68286	1548.88989	1559.56458	207.86162	1487.54980	1593.68677	222.66397	1557.95386	1521.51807	63.97329	1276.05090	1154.35242	611.29382	1310.84351	1123.56812	456.94012	1306.59521	1158.04810	283.15826	1362.12659	1164.93311	79.17268	1410.42944	1214.61658	40.08591	1375.99377	1023.68146	43.62180	1383.74011	1150.24792	1717.41785	-3101.92969	1973.10474	1023.38922	-3140.64209	2012.51929	1022.01544			 
37	0.360	1473.76721	1147.98389	1681.48523	1361.81848	1126.25342	1684.04504	1457.78784	1261.23401	1630.73853	1339.59363	1242.48755	1632.29749	1421.90442	1285.53784	1436.11108	1421.16931	1316.71704	1144.05066	1434.61914	1140.51233	1372.51709	1449.64282	1094.01074	1219.69165	1347.81873	1331.32043	1238.22424	1587.79944	1218.63269	1406.65222	1681.09448	1258.24988	1231.64551	1699.40662	1266.38940	1078.61108	1736.89429	1191.82117	992.06055	1735.58398	1070.96240	922.26953	1754.09265	1120.86414	894.12354	1777.62769	1050.13745	856.55768	1278.89966	1196.35022	1392.83362	1181.21899	1253.58740	1190.19446	1183.09692	1258.37610	1067.08264	1153.35120	1245.95374	948.67822	1174.65308	1184.32263	820.68695	1132.44043	1226.85327	829.19305	1139.97302	1204.67749	744.32574	1544.42517	1159.12292	933.32489	1331.82642	1131.27661	942.30524	1469.67126	1337.26611	952.34955	1325.42456	1317.32751	959.09399	1613.75757	1209.09485	601.17084	1611.28442	1234.94971	468.69077	1607.25891	1387.06384	360.80212	1548.64783	1543.40393	213.02361	1487.05261	1577.63611	228.12653	1557.81580	1506.19238	68.11465	1275.35388	1149.08557	610.79858	1309.82605	1120.20325	456.53619	1306.07031	1156.19739	282.69611	1362.13452	1164.69666	79.14397	1409.91394	1214.41687	40.88315	1375.92102	1023.54681	43.33573	1381.66150	1141.21826	1717.93457	-3102.00024	1972.93420	1023.74933	-3140.74292	2012.53821	1021.99335			 
38	0.370	1472.07056	1138.77698	1682.16589	1360.12537	1117.20923	1684.33020	1456.41443	1252.12244	1631.55554	1338.28369	1233.60046	1632.77380	1421.07129	1276.16357	1436.83167	1420.30164	1307.85120	1144.71045	1433.73767	1131.32031	1372.90552	1448.78516	1084.99707	1220.02368	1346.83252	1322.42993	1238.93213	1587.01648	1209.24548	1407.15161	1679.91772	1250.11682	1232.22961	1697.70691	1259.40295	1079.13074	1734.63989	1187.02405	990.61810	1732.62415	1067.92285	917.76447	1751.32507	1118.53174	890.94635	1774.06116	1048.58875	851.13147	1278.11682	1186.98938	1393.07666	1179.80994	1242.35583	1190.04370	1181.99011	1246.56104	1066.79846	1152.63086	1232.06152	948.37054	1174.56689	1168.38611	821.42188	1132.48975	1210.65491	829.18652	1139.95349	1186.90979	744.71588	1543.58691	1149.93408	933.72772	1330.42334	1123.04675	942.38910	1469.21094	1328.55127	951.98724	1324.97107	1309.22644	959.12158	1613.27112	1193.59033	601.71552	1611.06897	1216.32324	468.98157	1608.15515	1367.89685	361.12112	1548.03186	1526.59155	217.41957	1486.17285	1560.76025	232.34532	1560.33240	1492.45105	73.40231	1274.40845	1144.42432	610.81287	1309.16614	1116.93604	455.99976	1305.70056	1154.49158	282.66138	1362.09521	1164.55237	79.13219	1409.87378	1214.39429	40.98016	1375.88281	1023.38580	43.06830	1379.90979	1132.04456	1718.40063	-3102.07983	1973.14270	1023.42084	-3140.55347	2012.57422	1022.10632			 
39	0.380	1470.59570	1129.48279	1682.76990	1358.68079	1107.99597	1684.73657	1455.26355	1242.93140	1632.26575	1336.91309	1224.48694	1633.24878	1420.25659	1266.92639	1437.46167	1419.36987	1299.14063	1145.31079	1433.09070	1122.18909	1373.24341	1447.93555	1076.12976	1220.22717	1346.02551	1313.68726	1239.63745	1586.28613	1199.94751	1407.65186	1678.55042	1242.06787	1232.59900	1696.13965	1252.32788	1079.69214	1732.41223	1182.22729	989.28271	1729.61340	1065.16541	913.18726	1748.41125	1116.41650	887.67096	1770.41113	1047.41895	845.66290	1277.39990	1177.60376	1393.36597	1178.60071	1231.03943	1189.87939	1180.89697	1234.52551	1066.36731	1151.91394	1218.04651	948.10193	1174.36829	1152.09119	822.43774	1132.01709	1194.35425	829.14813	1139.97095	1169.06921	745.39410	1542.67798	1140.90100	934.23981	1329.17151	1114.87927	942.55487	1468.84814	1319.93201	951.65649	1324.64001	1301.33374	958.94635	1612.94031	1178.43750	602.72882	1610.86975	1197.62756	469.97934	1608.33301	1348.45386	361.39813	1547.19470	1508.91235	220.85361	1485.07056	1543.10352	235.57448	1560.77600	1473.99377	76.49032	1274.08228	1139.09521	610.60840	1308.58887	1113.62036	455.58780	1305.43958	1153.06946	282.76608	1362.09680	1164.42712	79.07520	1409.87146	1214.39978	41.07256	1375.96875	1023.19226	42.76417	1378.31152	1122.82471	1718.82825	-3101.91528	1973.11328	1023.42365	-3140.62988	2012.57825	1022.09271			 
40	0.390	1469.29639	1120.15222	1683.20068	1357.32715	1098.85388	1685.05969	1454.23218	1233.68726	1632.87830	1335.95740	1215.46460	1633.66980	1419.42017	1257.80811	1438.01123	1418.45654	1290.50525	1145.95862	1432.37622	1113.13147	1373.38757	1447.12439	1067.28491	1220.30969	1345.30676	1305.04016	1240.30286	1585.57520	1190.79370	1408.11084	1677.36646	1234.04260	1233.04541	1694.76282	1245.29431	1080.34424	1730.26270	1177.39038	988.07397	1726.57434	1062.58093	908.67133	1745.83069	1114.46851	884.62543	1766.83411	1046.60010	840.38153	1276.59314	1168.49414	1393.52881	1177.44690	1219.73535	1189.69495	1179.70093	1222.45349	1066.02173	1151.11682	1203.76868	947.82953	1174.29236	1135.66077	823.52960	1131.96252	1177.82886	829.36682	1139.81531	1150.88025	746.18567	1541.86230	1131.82324	934.86438	1327.77979	1106.86597	942.73352	1468.56543	1311.25244	951.38611	1324.32764	1293.45508	958.59583	1612.59106	1163.54907	603.96075	1610.07690	1178.90881	470.93082	1608.12439	1328.99634	362.15854	1546.22632	1490.47729	223.36310	1483.74744	1524.84082	237.36479	1561.83948	1455.31421	79.41205	1273.67212	1134.04810	610.65430	1307.97095	1110.54163	455.22736	1305.10950	1151.57922	282.73013	1362.01855	1164.29529	79.07133	1409.87158	1214.41333	41.18847	1375.92297	1023.07825	42.57581	1376.95276	1113.57324	1719.20874	-3101.84521	1973.14587	1023.38629	-3140.64673	2012.53894	1021.98016			 
41	0.400	1468.24414	1110.75317	1683.56726	1356.21094	1089.66797	1685.30530	1453.40234	1224.40137	1633.43408	1335.17175	1206.40906	1634.11084	1418.61902	1248.75464	1438.54626	1417.67480	1281.95190	1146.52576	1431.84985	1104.10352	1373.62830	1446.46631	1058.54810	1220.47559	1344.61780	1296.49023	1240.95166	1584.91467	1181.69348	1408.58374	1676.10339	1225.99597	1233.42151	1693.37891	1238.24219	1080.93640	1728.16443	1172.59412	986.98523	1723.40894	1060.27173	904.15771	1742.96863	1112.70215	881.59857	1763.01941	1046.01538	835.05658	1276.15320	1159.19629	1393.58215	1176.39209	1208.47827	1189.62317	1178.54333	1210.28711	1065.78967	1150.44275	1189.39026	947.75592	1174.21936	1119.11340	824.80133	1131.49548	1161.56604	829.65887	1139.76978	1132.43872	747.23682	1540.95081	1122.63611	935.53180	1326.41687	1098.86487	942.69403	1468.38745	1302.55530	951.15527	1324.14490	1285.71875	958.28485	1612.31396	1148.75183	605.37109	1609.55212	1160.18567	472.40125	1607.61426	1309.65979	363.36279	1545.28870	1471.46887	224.98978	1482.51111	1506.18726	238.09607	1562.95618	1435.57788	81.75191	1273.17676	1129.03845	610.51093	1307.59839	1107.43298	454.63828	1304.65869	1149.76086	282.46481	1361.97205	1164.21851	79.07152	1409.82385	1214.42932	41.38684	1375.83374	1022.95441	42.40182	1375.88184	1104.28955	1719.48999	-3101.79541	1973.07581	1023.43835	-3140.75952	2012.51636	1022.04041			 
42	0.410	1467.43018	1101.37402	1683.87952	1355.39819	1080.22205	1685.59753	1452.66895	1215.08240	1633.95532	1334.39294	1197.14221	1634.53992	1417.92505	1239.78467	1439.08362	1416.85339	1273.51416	1147.08691	1431.16736	1095.20886	1373.72351	1445.75854	1049.92358	1220.53040	1343.93152	1288.02063	1241.63354	1584.19238	1172.72559	1408.99438	1674.90015	1217.90039	1233.80115	1691.87488	1231.18945	1081.55896	1725.96716	1167.80359	985.97070	1720.24451	1058.16003	899.76013	1740.23621	1111.10986	878.74921	1759.31213	1045.72986	829.96552	1275.72302	1150.13574	1393.81543	1175.48572	1197.20789	1189.60303	1177.35999	1198.16846	1065.62292	1149.65320	1174.88940	947.75592	1174.19189	1102.35925	826.33661	1131.28748	1144.73083	830.32587	1139.53711	1113.80127	748.61505	1539.84729	1113.51599	936.21783	1324.99341	1090.95325	942.96600	1468.34021	1293.82556	951.13446	1324.12329	1277.97778	958.06189	1611.81018	1133.91418	606.74817	1608.94214	1141.50586	473.93365	1606.62720	1290.28723	364.45657	1544.57458	1452.10291	225.65767	1481.18494	1487.22900	237.57399	1563.78491	1414.19556	83.24734	1272.94360	1123.89368	610.60669	1306.82410	1104.19226	454.19012	1304.33557	1147.84839	282.33032	1361.83264	1164.02002	79.12473	1409.75183	1214.41785	41.60250	1375.73010	1022.77869	42.22404	1374.98779	1094.93091	1719.68530	-3101.92285	1973.11890	1023.26514	-3140.61890	2012.56006	1021.96558			 
